<svg xmlns="http://www.w3.org/2000/svg" xmlns:xlink="http://www.w3.org/1999/xlink" version="1.1" width="256" height="256" viewBox="0 0 256 256" xml:space="preserve">

<defs>
</defs>
<g style="stroke: none; stroke-width: 0; stroke-dasharray: none; stroke-linecap: butt; stroke-linejoin: miter; stroke-miterlimit: 10; fill: none; fill-rule: nonzero; opacity: 1;" transform="translate(1.4065934065934016 1.4065934065934016) scale(2.81 2.81)" >
	<path d="M 72.975 58.994 H 31.855 c -1.539 0 -2.897 -1.005 -3.347 -2.477 L 15.199 13.006 H 3.5 c -1.933 0 -3.5 -1.567 -3.5 -3.5 s 1.567 -3.5 3.5 -3.5 h 14.289 c 1.539 0 2.897 1.005 3.347 2.476 l 13.309 43.512 h 36.204 l 10.585 -25.191 h -6.021 c -1.933 0 -3.5 -1.567 -3.5 -3.5 s 1.567 -3.5 3.5 -3.5 H 86.5 c 1.172 0 2.267 0.587 2.915 1.563 s 0.766 2.212 0.312 3.293 L 76.201 56.85 C 75.655 58.149 74.384 58.994 72.975 58.994 z" style="stroke: none; stroke-width: 1; stroke-dasharray: none; stroke-linecap: butt; stroke-linejoin: miter; stroke-miterlimit: 10; fill: rgb(0,0,0); fill-rule: nonzero; opacity: 1;" transform=" matrix(1 0 0 1 0 0) " stroke-linecap="round" />
	<circle cx="28.88" cy="74.33" r="6.16" style="stroke: none; stroke-width: 1; stroke-dasharray: none; stroke-linecap: butt; stroke-linejoin: miter; stroke-miterlimit: 10; fill: rgb(0,0,0); fill-rule: nonzero; opacity: 1;" transform="  matrix(1 0 0 1 0 0) "/>
	<circle cx="74.59" cy="74.33" r="6.16" style="stroke: none; stroke-width: 1; stroke-dasharray: none; stroke-linecap: butt; stroke-linejoin: miter; stroke-miterlimit: 10; fill: rgb(0,0,0); fill-rule: nonzero; opacity: 1;" transform="  matrix(1 0 0 1 0 0) "/>
	<path d="M 63.653 21.403 c -1.367 -1.367 -3.582 -1.367 -4.949 0 L 53.3 26.807 v -17.3 c 0 -1.933 -1.567 -3.5 -3.5 -3.5 s -3.5 1.567 -3.5 3.5 v 17.3 l -5.404 -5.404 c -1.366 -1.366 -3.583 -1.367 -4.95 0 c -1.367 1.367 -1.367 3.583 0 4.95 l 11.378 11.377 c 0.163 0.163 0.343 0.309 0.535 0.438 c 0.084 0.056 0.176 0.095 0.264 0.143 c 0.112 0.061 0.22 0.129 0.338 0.178 c 0.115 0.047 0.234 0.075 0.353 0.109 c 0.1 0.03 0.197 0.068 0.301 0.089 c 0.226 0.045 0.456 0.069 0.685 0.069 s 0.459 -0.024 0.685 -0.069 c 0.104 -0.021 0.2 -0.059 0.301 -0.089 c 0.118 -0.035 0.238 -0.062 0.353 -0.109 c 0.119 -0.049 0.227 -0.117 0.338 -0.178 c 0.088 -0.048 0.18 -0.087 0.264 -0.143 c 0.193 -0.129 0.372 -0.274 0.535 -0.438 l 11.378 -11.377 C 65.021 24.985 65.021 22.77 63.653 21.403 z" style="stroke: none; stroke-width: 1; stroke-dasharray: none; stroke-linecap: butt; stroke-linejoin: miter; stroke-miterlimit: 10; fill: rgb(0,0,0); fill-rule: nonzero; opacity: 1;" transform=" matrix(1 0 0 1 0 0) " stroke-linecap="round" />
</g>
</svg>